<svg xmlns="http://www.w3.org/2000/svg" version="1.1" xmlns:xlink="http://www.w3.org/1999/xlink" xmlns:svgjs="http://svgjs.dev/svgjs" width="1000" height="386" viewBox="0 0 1000 386"><g transform="matrix(1,0,0,1,-0.6059952399663189,0.5973259215715814)"><svg viewBox="0 0 396 153" data-background-color="#046380" preserveAspectRatio="xMidYMid meet" height="386" width="1000" xmlns="http://www.w3.org/2000/svg" xmlns:xlink="http://www.w3.org/1999/xlink"><defs></defs><g id="tight-bounds" transform="matrix(1,0,0,1,0.23997940761751124,-0.23676263994231306)"><svg viewBox="0 0 395.52 153.47352654149788" height="153.47352654149788" width="395.52"><g><svg viewBox="0 0 657.9450141100092 255.30223904191618" height="153.47352654149788" width="395.52"><g transform="matrix(1,0,0,1,262.4250141100093,35.28417341317366)"><svg viewBox="0 0 395.52 184.73389221556886" height="184.73389221556886" width="395.52"><g><svg viewBox="0 0 395.52 184.73389221556886" height="184.73389221556886" width="395.52"><g><svg viewBox="0 0 395.52 184.73389221556886" height="184.73389221556886" width="395.52"><g transform="matrix(1,0,0,1,0,0)"><svg width="395.52" viewBox="0.8500007390975952 -35.000003814697266 167.94996643066406 74.50000762939453" height="184.73389221556886" data-palette-color="#ffffff"><svg></svg><svg></svg><g class="undefined-text-0" data-fill-palette-color="primary" id="text-0"><path d="M21.85 0h-10c-0.367 0-0.683-0.133-0.95-0.4-0.267-0.267-0.4-0.583-0.4-0.95v0-22.9h-8.3c-0.367 0-0.683-0.133-0.95-0.4-0.267-0.267-0.4-0.583-0.4-0.95v0-8.05c0-0.367 0.133-0.683 0.4-0.95 0.267-0.267 0.583-0.4 0.95-0.4v0h29.3c0.367 0 0.683 0.133 0.95 0.4 0.267 0.267 0.4 0.583 0.4 0.95v0 8.05c0 0.367-0.133 0.683-0.4 0.95-0.267 0.267-0.583 0.4-0.95 0.4v0h-8.3v22.9c0 0.367-0.133 0.683-0.4 0.95-0.267 0.267-0.583 0.4-0.95 0.4zM47.6 0h-9.8c-0.367 0-0.683-0.127-0.95-0.38-0.267-0.247-0.4-0.57-0.4-0.97v0-32.3c0-0.367 0.133-0.683 0.4-0.95 0.267-0.267 0.583-0.4 0.95-0.4v0h9.8c0.367 0 0.683 0.133 0.95 0.4 0.267 0.267 0.4 0.583 0.4 0.95v0 10.5h8.1v-10.5c0-0.367 0.133-0.683 0.4-0.95 0.267-0.267 0.583-0.4 0.95-0.4v0h9.8c0.367 0 0.683 0.133 0.95 0.4 0.267 0.267 0.4 0.583 0.4 0.95v0 32.3c0 0.367-0.133 0.683-0.4 0.95-0.267 0.267-0.583 0.4-0.95 0.4v0h-9.8c-0.367 0-0.683-0.133-0.95-0.4-0.267-0.267-0.4-0.583-0.4-0.95v0-10.8h-8.1v10.8c0 0.367-0.133 0.683-0.4 0.95-0.267 0.267-0.583 0.4-0.95 0.4zM102.45 0h-26.05c-0.367 0-0.683-0.133-0.95-0.4-0.267-0.267-0.4-0.583-0.4-0.95v0-32.3c0-0.367 0.133-0.683 0.4-0.95 0.267-0.267 0.583-0.4 0.95-0.4v0h25.65c0.367 0 0.683 0.133 0.95 0.4 0.267 0.267 0.4 0.583 0.4 0.95v0 7.05c0 0.367-0.133 0.683-0.4 0.95-0.267 0.267-0.583 0.4-0.95 0.4v0h-15v3.15h13.9c0.367 0 0.683 0.133 0.95 0.4 0.267 0.267 0.4 0.583 0.4 0.95v0 6.5c0 0.367-0.133 0.683-0.4 0.95-0.267 0.267-0.583 0.4-0.95 0.4v0h-13.9v3.15h15.4c0.367 0 0.683 0.133 0.95 0.4 0.267 0.267 0.4 0.583 0.4 0.95v0 7.05c0 0.367-0.133 0.683-0.4 0.95-0.267 0.267-0.583 0.4-0.95 0.4z" data-fill-palette-color="primary" fill="#ffffff" opacity="1"></path><path d="M18.55 39.5v0c-3.267 0-6.123-0.5-8.57-1.5-2.453-1-4.39-2.51-5.81-4.53-1.413-2.013-2.187-4.503-2.32-7.47v0c-0.033-1.367-0.05-2.817-0.05-4.35 0-1.533 0.017-3.017 0.05-4.45v0c0.133-2.933 0.9-5.417 2.3-7.45 1.4-2.033 3.333-3.583 5.8-4.65 2.467-1.067 5.333-1.6 8.6-1.6v0c3.267 0 6.133 0.533 8.6 1.6 2.467 1.067 4.41 2.617 5.83 4.65 1.413 2.033 2.17 4.517 2.27 7.45v0c0.067 1.433 0.1 2.917 0.1 4.45 0 1.533-0.033 2.983-0.1 4.35v0c-0.133 2.967-0.907 5.457-2.32 7.47-1.42 2.02-3.353 3.53-5.8 4.53-2.453 1-5.313 1.5-8.58 1.5zM18.55 29.75v0c1.1 0 1.983-0.327 2.65-0.98 0.667-0.647 1.017-1.67 1.05-3.07v0c0.067-1.433 0.1-2.85 0.1-4.25 0-1.4-0.033-2.783-0.1-4.15v0c-0.033-0.933-0.207-1.7-0.52-2.3-0.32-0.6-0.747-1.043-1.28-1.33-0.533-0.28-1.167-0.42-1.9-0.42v0c-0.7 0-1.323 0.14-1.87 0.42-0.553 0.287-0.987 0.73-1.3 1.33-0.32 0.6-0.497 1.367-0.53 2.3v0c-0.033 1.367-0.05 2.75-0.05 4.15 0 1.4 0.017 2.817 0.05 4.25v0c0.067 1.4 0.427 2.423 1.08 3.07 0.647 0.653 1.52 0.98 2.62 0.98zM45.75 18.6h-4.1c-0.633 0-1.067-0.167-1.3-0.5-0.233-0.333-0.383-0.7-0.45-1.1v0l-1.35-11.7c-0.067-0.567 0.027-1.007 0.28-1.32 0.247-0.32 0.603-0.48 1.07-0.48v0h7.6c0.467 0 0.827 0.16 1.08 0.48 0.247 0.313 0.337 0.753 0.27 1.32v0l-1.35 11.7c-0.033 0.4-0.167 0.767-0.4 1.1-0.233 0.333-0.683 0.5-1.35 0.5zM63.95 39h-9.55c-0.367 0-0.683-0.133-0.95-0.4-0.267-0.267-0.4-0.583-0.4-0.95v0-32.3c0-0.367 0.133-0.683 0.4-0.95 0.267-0.267 0.583-0.4 0.95-0.4v0h25.2c0.367 0 0.683 0.133 0.95 0.4 0.267 0.267 0.4 0.583 0.4 0.95v0 7.6c0 0.367-0.133 0.683-0.4 0.95-0.267 0.267-0.583 0.4-0.95 0.4v0h-14.3v3.7h13.3c0.367 0 0.683 0.133 0.95 0.4 0.267 0.267 0.4 0.583 0.4 0.95v0 7.55c0 0.367-0.133 0.683-0.4 0.95-0.267 0.267-0.583 0.4-0.95 0.4v0h-13.3v9.4c0 0.367-0.133 0.683-0.4 0.95-0.267 0.267-0.583 0.4-0.95 0.4zM96.9 39h-10.2c-0.367 0-0.683-0.133-0.95-0.4-0.267-0.267-0.4-0.583-0.4-0.95v0-32.3c0-0.367 0.133-0.683 0.4-0.95 0.267-0.267 0.583-0.4 0.95-0.4v0h10.2c0.367 0 0.683 0.133 0.95 0.4 0.267 0.267 0.4 0.583 0.4 0.95v0 32.3c0 0.367-0.133 0.683-0.4 0.95-0.267 0.267-0.583 0.4-0.95 0.4zM124.85 39h-11.4c-0.667 0-1.183-0.183-1.55-0.55-0.367-0.367-0.6-0.733-0.7-1.1v0l-9.4-31.9c-0.033-0.133-0.05-0.25-0.05-0.35v0c0-0.3 0.11-0.56 0.33-0.78 0.213-0.213 0.47-0.32 0.77-0.32v0h9.3c0.667 0 1.183 0.183 1.55 0.55 0.367 0.367 0.6 0.733 0.7 1.1v0l4.75 18.6 4.75-18.6c0.1-0.367 0.333-0.733 0.7-1.1 0.367-0.367 0.883-0.55 1.55-0.55v0h9.3c0.3 0 0.56 0.107 0.78 0.32 0.213 0.22 0.32 0.48 0.32 0.78v0c0 0.1-0.017 0.217-0.05 0.35v0l-9.4 31.9c-0.1 0.367-0.333 0.733-0.7 1.1-0.367 0.367-0.883 0.55-1.55 0.55zM167.45 39h-26.05c-0.367 0-0.683-0.133-0.95-0.4-0.267-0.267-0.4-0.583-0.4-0.95v0-32.3c0-0.367 0.133-0.683 0.4-0.95 0.267-0.267 0.583-0.4 0.95-0.4v0h25.65c0.367 0 0.683 0.133 0.95 0.4 0.267 0.267 0.4 0.583 0.4 0.95v0 7.05c0 0.367-0.133 0.683-0.4 0.95-0.267 0.267-0.583 0.4-0.95 0.4v0h-15v3.15h13.9c0.367 0 0.683 0.133 0.95 0.4 0.267 0.267 0.4 0.583 0.4 0.95v0 6.5c0 0.367-0.133 0.683-0.4 0.95-0.267 0.267-0.583 0.4-0.95 0.4v0h-13.9v3.15h15.4c0.367 0 0.683 0.133 0.95 0.4 0.267 0.267 0.4 0.583 0.4 0.95v0 7.05c0 0.367-0.133 0.683-0.4 0.95-0.267 0.267-0.583 0.4-0.95 0.4z" data-fill-palette-color="primary" fill="#ffffff" opacity="1"></path></g></svg></g></svg></g></svg></g></svg></g><g><svg viewBox="0 0 242.29675026138653 255.30223904191618" height="255.30223904191618" width="242.29675026138653"><g><svg xmlns="http://www.w3.org/2000/svg" xmlns:xlink="http://www.w3.org/1999/xlink" version="1.1" x="0" y="0" viewBox="7.485250473022461 4.9900007247924805 83.67849731445312 88.17001342773438" enable-background="new 0 0 100 100" xml:space="preserve" height="255.30223904191618" width="242.29675026138653" class="icon-icon-0" data-fill-palette-color="accent" id="icon-0"><path d="M90.861 51.847c-3.641-5.361-16.009-22.855-22.282-22.855h-6.1c-0.419 0-0.817 0.158-1.132 0.427l-9.787-6.07v-3.296c3.369-0.794 5.887-3.818 5.887-7.426 0-4.211-3.426-7.637-7.637-7.637s-7.637 3.426-7.637 7.637c0 0.966 0.784 1.75 1.75 1.75s1.75-0.784 1.75-1.75c0-2.281 1.856-4.137 4.137-4.137 2.281 0 4.137 1.856 4.137 4.137s-1.855 4.137-4.137 4.137c-0.966 0-1.75 0.784-1.75 1.75v4.838l-9.328 5.784c-0.216-0.093-0.451-0.143-0.691-0.143h-7.797c-5.947 0-18.68 17.477-22.441 22.833-0.527 0.752-0.385 1.782 0.326 2.362l14.08 11.479c0.749 0.609 1.851 0.498 2.462-0.251l0.99-1.214v27.208c0 0.967 0.784 1.75 1.75 1.75h44.167c0.966 0 1.75-0.783 1.75-1.75v-26.79l0.649 0.797c0.611 0.748 1.714 0.86 2.463 0.25L90.52 54.187C91.223 53.613 91.371 52.598 90.861 51.847zM49.812 26.382l10.709 6.643c-0.753 3.063-3.539 5.346-6.859 5.346h-6.834c-3.482 0-6.373-2.532-6.931-5.84L49.812 26.382zM75.586 61.847l-2.65-3.249c-0.469-0.574-1.248-0.792-1.943-0.543-0.697 0.248-1.163 0.908-1.163 1.648v29.955H29.162V59.285c0-0.74-0.466-1.4-1.163-1.648-0.696-0.248-1.476-0.031-1.943 0.543l-2.99 3.667L11.61 52.508c2.298-3.207 4.783-6.44 7.185-9.348 1.032-1.25 2.048-2.439 3.028-3.54 3.756-4.218 6.969-7.129 8.422-7.129h3.075 3.032c0.073 0.683 0.215 1.345 0.413 1.982 0.865 2.779 2.858 5.065 5.444 6.329 1.396 0.682 2.962 1.069 4.619 1.069h6.834c1.661 0 3.232-0.387 4.632-1.069 2.45-1.193 4.362-3.301 5.3-5.873 0.282-0.776 0.485-1.59 0.576-2.438h2.132 2.277c1.427 0 4.264 2.456 7.594 6.123 1.384 1.524 2.853 3.257 4.342 5.112 2.211 2.754 4.464 5.772 6.544 8.767L75.586 61.847z" fill="#ffffff" data-fill-palette-color="accent"></path></svg></g></svg></g></svg></g></svg><rect width="395.52" height="153.47352654149788" fill="none" stroke="none" visibility="hidden"></rect></g></svg></g></svg>